# xmcd CD database file
#
# Track frame offsets:
#	150
#	25914
#	51139
#	84388
#	112220
#	134505
#	162284
#	190453
#	225600
#	252723
#
# Disc length: 3756 seconds
#
# Revision: 1
# Processed by: cddbd v1.5.2PL0 Copyright (c) Steve Scherf et al.
# Submitted via: CDex 1.51
#
DISCID=8d0eaa0a
DTITLE=Body and Soul - Bathtime
DYEAR=2000
DGENRE=Ambient
TTITLE0=The Rising Sun
TTITLE1=Creation
TTITLE2=Fountain of Light
TTITLE3=Day Dreaming
TTITLE4=Voyage of Discovery
TTITLE5=Rolling Waves
TTITLE6=The Swirling Pool
TTITLE7=Dancing Sunbeams
TTITLE8=Hypnotic Waters
TTITLE9=Crystal Ships
EXTD=YEAR: 2000
EXTT0=
EXTT1=
EXTT2=
EXTT3=
EXTT4=
EXTT5=
EXTT6=
EXTT7=
EXTT8=
EXTT9=
PLAYORDER=
